#define diag_width 12
#define diag_height 12
static unsigned char diag_bits[] = {
   0x00, 0x0c, 0x00, 0x0f, 0xc0, 0x0d, 0x60, 0x06, 0x38, 0x04, 0x78, 0x06,
   0xf0, 0x04, 0x98, 0x06, 0x8c, 0x03, 0x84, 0x03, 0xe6, 0x00, 0x3c, 0x00 };
