#define godown_small_width 7
#define godown_small_height 7
static unsigned char godown_small_bits[] = {
   0x08, 0x08, 0x08, 0x08, 0x3e, 0x1c, 0x08};
