#define godown_width 12
#define godown_height 12
static char godown_bits[] = {
   0x00, 0x00, 0x70, 0x00, 0x70, 0x00, 0x70, 0x00, 0x70, 0x00, 0x70, 0x00,
   0xff, 0x07, 0xfe, 0x03, 0xfc, 0x01, 0xf8, 0x00, 0x70, 0x00, 0x20, 0x00};
