#define goup_small_width 7
#define goup_small_height 7
static unsigned char goup_small_bits[] = {
   0x08, 0x1c, 0x3e, 0x08, 0x08, 0x08, 0x08};
